<?xml version="1.0" encoding="UTF-8"?>
<svg xmlns="http://www.w3.org/2000/svg" width="16" height="16" viewBox="0 0 16 16">
  <rect x="0" y="0" width="16" height="16" rx="3" ry="3" fill="#f4c430"/>
  <!-- timeline -->
  <line x1="4" y1="2.5" x2="4" y2="13.5" stroke="#111111" stroke-width="1.2" stroke-linecap="round"/>
  <circle cx="4" cy="4" r="1.2" fill="#111111"/>
  <circle cx="4" cy="8" r="2" fill="#e23b2b"/>
  <circle cx="4" cy="12" r="1.2" fill="#111111"/>
  <!-- finger pointing left -->
  <g transform="translate(6.5, 4.4) scale(0.25)">
    <path fill="#111111" d="M20.145 31s-2.436-.167-3.068-1.792c-.646-1.659.622-2.309.622-2.309s-1.914.059-2.622-1.941c-.668-1.885.958-2.75.958-2.75s-1.871-.307-2.417-2.292C13.158 18.245 14.784 17 14.784 17H2.576C1.617 17 .001 16.458 0 14.457-.002 12.457 1.659 12 2.576 12h20.5c1 0 1-1 0-1H20.41c-3.792 0-6.143-2.038-6.792-2.751-.65-.713-.98-1.667-.734-2.82.415-1.956 1.92-1.529 3.197-.975 3.078 1.337 7.464 2.254 9.538 2.533 5.858.791 10.375 5.809 10.381 11.884.004 6.626-5.298 12.124-11.924 12.129z"/>
  </g>
</svg>
